<svg width="1516" height="703" viewBox="0 0 1516 703" fill="none" xmlns="http://www.w3.org/2000/svg">
<line x1="1053.55" y1="672.57" x2="1452.55" y2="546.57" stroke="black" stroke-width="3"/>
<line x1="1515.19" y1="557.368" x2="1382.74" y2="534.478" stroke="black" stroke-width="3"/>
<line x1="1118.19" y1="683.368" x2="985.745" y2="660.478" stroke="black" stroke-width="3"/>
<line x1="824.509" y1="71.5827" x2="951.509" y2="27.5827" stroke="black" stroke-width="3"/>
<line x1="1366.51" y1="173.583" x2="1493.51" y2="129.583" stroke="black" stroke-width="3"/>
<line x1="874.253" y1="54.5214" x2="1430.25" y2="149.521" stroke="black" stroke-width="3"/>
<line x1="397.097" y1="211.139" x2="796.097" y2="85.1393" stroke="black" stroke-width="6"/>
<line x1="950.103" y1="306.137" x2="1352.1" y2="180.137" stroke="black" stroke-width="6"/>
<line x1="794.503" y1="85.0424" x2="1353.5" y2="180.042" stroke="black" stroke-width="6"/>
<line x1="395.505" y1="211.043" x2="951.505" y2="306.043" stroke="black" stroke-width="6"/>
<line x1="950.103" y1="648.137" x2="1352.1" y2="522.137" stroke="black" stroke-width="6"/>
<line x1="395.505" y1="553.043" x2="951.505" y2="648.043" stroke="black" stroke-width="6"/>
<line x1="398" y1="214" x2="398" y2="556" stroke="black" stroke-width="6"/>
<line x1="1351" y1="178" x2="1351" y2="525" stroke="black" stroke-width="6"/>
<line x1="954" y1="305" x2="954" y2="647" stroke="black" stroke-width="6"/>
<path d="M1104.47 47V13.4H1108.02V43.928H1126.84V47H1104.47ZM1149.65 47.288C1147.12 47.288 1144.77 46.872 1142.59 46.04C1140.45 45.176 1138.58 43.976 1136.98 42.44C1135.41 40.872 1134.18 39.064 1133.28 37.016C1132.42 34.936 1131.99 32.664 1131.99 30.2C1131.99 27.736 1132.42 25.48 1133.28 23.432C1134.18 21.352 1135.41 19.544 1136.98 18.008C1138.58 16.44 1140.45 15.24 1142.59 14.408C1144.74 13.544 1147.09 13.112 1149.65 13.112C1152.18 13.112 1154.51 13.544 1156.66 14.408C1158.8 15.24 1160.66 16.424 1162.23 17.96C1163.83 19.496 1165.06 21.304 1165.92 23.384C1166.82 25.464 1167.27 27.736 1167.27 30.2C1167.27 32.664 1166.82 34.936 1165.92 37.016C1165.06 39.096 1163.83 40.904 1162.23 42.44C1160.66 43.976 1158.8 45.176 1156.66 46.04C1154.51 46.872 1152.18 47.288 1149.65 47.288ZM1149.65 44.12C1151.67 44.12 1153.52 43.784 1155.22 43.112C1156.95 42.408 1158.43 41.432 1159.68 40.184C1160.96 38.904 1161.95 37.432 1162.66 35.768C1163.36 34.072 1163.71 32.216 1163.71 30.2C1163.71 28.184 1163.36 26.344 1162.66 24.68C1161.95 22.984 1160.96 21.512 1159.68 20.264C1158.43 18.984 1156.95 18.008 1155.22 17.336C1153.52 16.632 1151.67 16.28 1149.65 16.28C1147.63 16.28 1145.76 16.632 1144.03 17.336C1142.31 18.008 1140.8 18.984 1139.52 20.264C1138.27 21.512 1137.28 22.984 1136.55 24.68C1135.84 26.344 1135.49 28.184 1135.49 30.2C1135.49 32.184 1135.84 34.024 1136.55 35.72C1137.28 37.416 1138.27 38.904 1139.52 40.184C1140.8 41.432 1142.31 42.408 1144.03 43.112C1145.76 43.784 1147.63 44.12 1149.65 44.12ZM1178.11 47V13.4H1181.04L1204.22 42.584H1202.68V13.4H1206.19V47H1203.26L1180.12 17.816H1181.66V47H1178.11ZM1234.77 47.288C1232.21 47.288 1229.84 46.872 1227.67 46.04C1225.52 45.176 1223.65 43.976 1222.05 42.44C1220.48 40.904 1219.25 39.096 1218.35 37.016C1217.49 34.936 1217.06 32.664 1217.06 30.2C1217.06 27.736 1217.49 25.464 1218.35 23.384C1219.25 21.304 1220.5 19.496 1222.1 17.96C1223.7 16.424 1225.57 15.24 1227.71 14.408C1229.89 13.544 1232.26 13.112 1234.82 13.112C1237.38 13.112 1239.71 13.512 1241.83 14.312C1243.97 15.112 1245.79 16.328 1247.3 17.96L1245.09 20.216C1243.68 18.808 1242.13 17.8 1240.43 17.192C1238.74 16.584 1236.91 16.28 1234.96 16.28C1232.88 16.28 1230.96 16.632 1229.2 17.336C1227.47 18.008 1225.95 18.984 1224.64 20.264C1223.36 21.512 1222.35 22.984 1221.62 24.68C1220.91 26.344 1220.56 28.184 1220.56 30.2C1220.56 32.184 1220.91 34.024 1221.62 35.72C1222.35 37.416 1223.36 38.904 1224.64 40.184C1225.95 41.432 1227.47 42.408 1229.2 43.112C1230.96 43.784 1232.87 44.12 1234.91 44.12C1236.83 44.12 1238.64 43.832 1240.34 43.256C1242.07 42.68 1243.65 41.704 1245.09 40.328L1247.11 43.016C1245.51 44.424 1243.63 45.496 1241.49 46.232C1239.35 46.936 1237.11 47.288 1234.77 47.288ZM1243.7 42.584V30.2H1247.11V43.016L1243.7 42.584ZM1273.57 47.288C1269.29 47.288 1265.91 46.056 1263.45 43.592C1260.98 41.128 1259.75 37.48 1259.75 32.648V13.4H1263.3V32.504C1263.3 36.472 1264.2 39.4 1265.99 41.288C1267.78 43.176 1270.31 44.12 1273.57 44.12C1276.87 44.12 1279.41 43.176 1281.21 41.288C1283 39.4 1283.89 36.472 1283.89 32.504V13.4H1287.35V32.648C1287.35 37.48 1286.12 41.128 1283.65 43.592C1281.22 46.056 1277.86 47.288 1273.57 47.288ZM1304.1 28.424H1321.86V31.448H1304.1V28.424ZM1304.49 43.928H1324.69V47H1300.93V13.4H1323.97V16.472H1304.49V43.928ZM1349.46 47.288C1345.17 47.288 1341.8 46.056 1339.33 43.592C1336.87 41.128 1335.64 37.48 1335.64 32.648V13.4H1339.19V32.504C1339.19 36.472 1340.08 39.4 1341.88 41.288C1343.67 43.176 1346.2 44.12 1349.46 44.12C1352.76 44.12 1355.3 43.176 1357.09 41.288C1358.88 39.4 1359.78 36.472 1359.78 32.504V13.4H1363.24V32.648C1363.24 37.48 1362 41.128 1359.54 43.592C1357.11 46.056 1353.75 47.288 1349.46 47.288ZM1376.82 47V13.4H1389.4C1392.24 13.4 1394.69 13.864 1396.74 14.792C1398.79 15.688 1400.36 17 1401.44 18.728C1402.56 20.424 1403.12 22.488 1403.12 24.92C1403.12 27.288 1402.56 29.336 1401.44 31.064C1400.36 32.76 1398.79 34.072 1396.74 35C1394.69 35.896 1392.24 36.344 1389.4 36.344H1378.79L1380.37 34.712V47H1376.82ZM1399.76 47L1391.12 34.808H1394.96L1403.65 47H1399.76ZM1380.37 35L1378.79 33.32H1389.3C1392.66 33.32 1395.2 32.584 1396.93 31.112C1398.69 29.64 1399.57 27.576 1399.57 24.92C1399.57 22.232 1398.69 20.152 1396.93 18.68C1395.2 17.208 1392.66 16.472 1389.3 16.472H1378.79L1380.37 14.792V35Z" fill="black"/>
<path d="M1230.47 691V657.4H1234.02V687.928H1252.84V691H1230.47ZM1256.24 691L1271.6 657.4H1275.11L1290.47 691H1286.72L1272.61 659.464H1274.05L1259.94 691H1256.24ZM1262.29 682.024L1263.35 679.144H1282.88L1283.94 682.024H1262.29ZM1298.9 691V657.4H1311.48C1314.33 657.4 1316.78 657.864 1318.82 658.792C1320.87 659.688 1322.44 661 1323.53 662.728C1324.65 664.424 1325.21 666.488 1325.21 668.92C1325.21 671.288 1324.65 673.336 1323.53 675.064C1322.44 676.76 1320.87 678.072 1318.82 679C1316.78 679.896 1314.33 680.344 1311.48 680.344H1300.87L1302.46 678.712V691H1298.9ZM1321.85 691L1313.21 678.808H1317.05L1325.74 691H1321.85ZM1302.46 679L1300.87 677.32H1311.38C1314.74 677.32 1317.29 676.584 1319.02 675.112C1320.78 673.64 1321.66 671.576 1321.66 668.92C1321.66 666.232 1320.78 664.152 1319.02 662.68C1317.29 661.208 1314.74 660.472 1311.38 660.472H1300.87L1302.46 658.792V679ZM1351.21 691.288C1348.65 691.288 1346.28 690.872 1344.1 690.04C1341.96 689.176 1340.09 687.976 1338.49 686.44C1336.92 684.904 1335.69 683.096 1334.79 681.016C1333.93 678.936 1333.5 676.664 1333.5 674.2C1333.5 671.736 1333.93 669.464 1334.79 667.384C1335.69 665.304 1336.94 663.496 1338.54 661.96C1340.14 660.424 1342.01 659.24 1344.15 658.408C1346.33 657.544 1348.7 657.112 1351.26 657.112C1353.82 657.112 1356.15 657.512 1358.26 658.312C1360.41 659.112 1362.23 660.328 1363.74 661.96L1361.53 664.216C1360.12 662.808 1358.57 661.8 1356.87 661.192C1355.18 660.584 1353.35 660.28 1351.4 660.28C1349.32 660.28 1347.4 660.632 1345.64 661.336C1343.91 662.008 1342.39 662.984 1341.08 664.264C1339.8 665.512 1338.79 666.984 1338.06 668.68C1337.35 670.344 1337 672.184 1337 674.2C1337 676.184 1337.35 678.024 1338.06 679.72C1338.79 681.416 1339.8 682.904 1341.08 684.184C1342.39 685.432 1343.91 686.408 1345.64 687.112C1347.4 687.784 1349.3 688.12 1351.35 688.12C1353.27 688.12 1355.08 687.832 1356.78 687.256C1358.5 686.68 1360.09 685.704 1361.53 684.328L1363.54 687.016C1361.94 688.424 1360.07 689.496 1357.93 690.232C1355.78 690.936 1353.54 691.288 1351.21 691.288ZM1360.14 686.584V674.2H1363.54V687.016L1360.14 686.584ZM1379.64 672.424H1397.4V675.448H1379.64V672.424ZM1380.03 687.928H1400.24V691H1376.48V657.4H1399.52V660.472H1380.03V687.928ZM1425 691.288C1420.71 691.288 1417.34 690.056 1414.87 687.592C1412.41 685.128 1411.18 681.48 1411.18 676.648V657.4H1414.73V676.504C1414.73 680.472 1415.63 683.4 1417.42 685.288C1419.21 687.176 1421.74 688.12 1425 688.12C1428.3 688.12 1430.84 687.176 1432.63 685.288C1434.43 683.4 1435.32 680.472 1435.32 676.504V657.4H1438.78V676.648C1438.78 681.48 1437.55 685.128 1435.08 687.592C1432.65 690.056 1429.29 691.288 1425 691.288ZM1452.36 691V657.4H1464.94C1467.79 657.4 1470.23 657.864 1472.28 658.792C1474.33 659.688 1475.9 661 1476.99 662.728C1478.11 664.424 1478.67 666.488 1478.67 668.92C1478.67 671.288 1478.11 673.336 1476.99 675.064C1475.9 676.76 1474.33 678.072 1472.28 679C1470.23 679.896 1467.79 680.344 1464.94 680.344H1454.33L1455.91 678.712V691H1452.36ZM1475.31 691L1466.67 678.808H1470.51L1479.19 691H1475.31ZM1455.91 679L1454.33 677.32H1464.84C1468.2 677.32 1470.75 676.584 1472.47 675.112C1474.23 673.64 1475.11 671.576 1475.11 668.92C1475.11 666.232 1474.23 664.152 1472.47 662.68C1470.75 661.208 1468.2 660.472 1464.84 660.472H1454.33L1455.91 658.792V679Z" fill="black"/>
<path d="M30.048 368.4H33.552V402H30.048V368.4ZM9.024 402H5.472V368.4H9.024V402ZM30.384 386.496H8.64V383.376H30.384V386.496ZM42.0229 402L57.3829 368.4H60.8869L76.2469 402H72.5029L58.3909 370.464H59.8309L45.7189 402H42.0229ZM48.0709 393.024L49.1269 390.144H68.6629L69.7189 393.024H48.0709ZM97.518 402.288C93.23 402.288 89.854 401.056 87.39 398.592C84.926 396.128 83.694 392.48 83.694 387.648V368.4H87.246V387.504C87.246 391.472 88.142 394.4 89.934 396.288C91.726 398.176 94.254 399.12 97.518 399.12C100.814 399.12 103.358 398.176 105.15 396.288C106.942 394.4 107.838 391.472 107.838 387.504V368.4H111.294V387.648C111.294 392.48 110.062 396.128 107.598 398.592C105.166 401.056 101.806 402.288 97.518 402.288ZM130.749 402V371.472H118.941V368.4H146.109V371.472H134.301V402H130.749ZM157.832 383.424H175.592V386.448H157.832V383.424ZM158.216 398.928H178.424V402H154.664V368.4H177.704V371.472H158.216V398.928ZM203.189 402.288C198.901 402.288 195.525 401.056 193.061 398.592C190.597 396.128 189.365 392.48 189.365 387.648V368.4H192.917V387.504C192.917 391.472 193.813 394.4 195.605 396.288C197.397 398.176 199.925 399.12 203.189 399.12C206.485 399.12 209.029 398.176 210.821 396.288C212.613 394.4 213.509 391.472 213.509 387.504V368.4H216.965V387.648C216.965 392.48 215.733 396.128 213.269 398.592C210.837 401.056 207.477 402.288 203.189 402.288ZM230.549 402V368.4H243.125C245.973 368.4 248.421 368.864 250.469 369.792C252.517 370.688 254.085 372 255.173 373.728C256.293 375.424 256.853 377.488 256.853 379.92C256.853 382.288 256.293 384.336 255.173 386.064C254.085 387.76 252.517 389.072 250.469 390C248.421 390.896 245.973 391.344 243.125 391.344H232.517L234.101 389.712V402H230.549ZM253.493 402L244.853 389.808H248.693L257.381 402H253.493ZM234.101 390L232.517 388.32H243.029C246.389 388.32 248.933 387.584 250.661 386.112C252.421 384.64 253.301 382.576 253.301 379.92C253.301 377.232 252.421 375.152 250.661 373.68C248.933 372.208 246.389 371.472 243.029 371.472H232.517L234.101 369.792V390Z" fill="black"/>
<line x1="308.5" y1="214" x2="308.5" y2="548" stroke="black" stroke-width="3"/>
<line x1="354" y1="215.5" x2="260" y2="215.5" stroke="black" stroke-width="3"/>
<line x1="354" y1="549.5" x2="260" y2="549.5" stroke="black" stroke-width="3"/>
</svg>
