<svg width="68" height="68" viewBox="0 0 68 68" fill="none" xmlns="http://www.w3.org/2000/svg">
<path d="M20.4 3.39996H34L51 6.79996L61.2 27.2V61.2L54.4 68H13.6L6.80005 61.2V27.2L20.4 3.39996Z" fill="#FFF5F7"/>
<path d="M53.6164 68H14.3849C9.77911 68 7.05644 65.8099 6.60528 61.7994H1.30772C0.960889 61.7994 0.628266 61.6688 0.383022 61.4362C0.137777 61.2036 0 60.8882 0 60.5593V35.757C0 35.4281 0.137777 35.1127 0.383022 34.8801C0.628266 34.6475 0.960889 34.5169 1.30772 34.5169H6.53859V28.8123C6.58436 26.8455 6.83806 24.963 7.29445 23.1859C7.88237 20.8625 8.83593 18.6364 10.123 16.5823C10.2109 16.4423 10.3269 16.3202 10.4646 16.2227C10.6022 16.1253 10.7587 16.0545 10.9252 16.0144C11.0917 15.9743 11.2649 15.9658 11.4349 15.9892C11.6049 16.0125 11.7683 16.0675 11.9159 16.1508C12.0635 16.2341 12.1924 16.3441 12.2951 16.4746C12.3979 16.6052 12.4725 16.7536 12.5148 16.9115C12.557 17.0694 12.5661 17.2336 12.5414 17.3948C12.5168 17.556 12.4588 17.711 12.371 17.851C11.2179 19.6923 10.3636 21.6876 9.83665 23.77C9.41674 25.4311 9.18787 27.1305 9.15402 28.8384V60.5593C9.15402 63.5443 10.3767 65.0907 13.0772 65.4429V41.9576C13.0772 37.1596 15.8639 34.5169 20.9235 34.5169H47.0778C52.1374 34.5169 54.9241 37.1596 54.9241 41.9576V65.4429C57.6246 65.0919 58.8473 63.5455 58.8473 60.5593V28.8123C58.8116 27.1145 58.5832 25.4252 58.166 23.7737C57.6405 21.6923 56.8057 19.6922 55.6865 17.8336C55.5256 17.5492 55.4879 17.2164 55.5815 16.9061C55.6751 16.5957 55.8927 16.3322 56.1879 16.1715C56.4832 16.0109 56.8329 15.9657 57.1627 16.0457C57.4925 16.1256 57.7764 16.3244 57.9541 16.5997C59.1963 18.661 60.1227 20.8795 60.7056 23.1884C61.1619 24.9618 61.4156 26.8455 61.4614 28.7851V34.5169H66.6923C66.864 34.5169 67.0341 34.5489 67.1927 34.6113C67.3514 34.6736 67.4955 34.7649 67.617 34.8801C67.7384 34.9952 67.8347 35.132 67.9005 35.2824C67.9662 35.4329 68 35.5941 68 35.757V60.5593C68 60.7221 67.9662 60.8834 67.9005 61.0339C67.8347 61.1843 67.7384 61.321 67.617 61.4362C67.4955 61.5513 67.3514 61.6427 67.1927 61.705C67.0341 61.7673 66.864 61.7994 66.6923 61.7994H61.3947C60.9449 65.8099 58.2209 68 53.6164 68ZM15.6926 65.5198H52.3087V49.3983H47.4048C47.233 49.3983 47.0629 49.3662 46.9042 49.3039C46.7455 49.2416 46.6013 49.1503 46.4799 49.0351C46.3584 48.92 46.262 48.7833 46.1963 48.6328C46.1306 48.4823 46.0967 48.321 46.0967 48.1581C46.0967 47.9953 46.1306 47.834 46.1963 47.6835C46.262 47.533 46.3584 47.3963 46.4799 47.2811C46.6013 47.166 46.7455 47.0746 46.9042 47.0123C47.0629 46.95 47.233 46.918 47.4048 46.918H52.3087V41.9576C52.3087 38.5262 50.6963 36.9971 47.0778 36.9971H20.9235C17.305 36.9971 15.6926 38.5262 15.6926 41.9576V46.918H20.8581C21.0299 46.918 21.1999 46.95 21.3586 47.0123C21.5173 47.0746 21.6615 47.166 21.783 47.2811C21.9045 47.3963 22.0008 47.533 22.0666 47.6835C22.1323 47.834 22.1661 47.9953 22.1661 48.1581C22.1661 48.321 22.1323 48.4823 22.0666 48.6328C22.0008 48.7833 21.9045 48.92 21.783 49.0351C21.6615 49.1503 21.5173 49.2416 21.3586 49.3039C21.1999 49.3662 21.0299 49.3983 20.8581 49.3983H15.6926V65.5198ZM61.4627 59.3192H65.3859V36.9971H61.4627V59.3192ZM2.61543 59.3192H6.53859V36.9971H2.61543V59.3192ZM40.5392 55.5988C40.1924 55.5988 39.8598 55.4682 39.6145 55.2356C39.3693 55.003 39.2315 54.6876 39.2315 54.3587V48.1581C39.2315 47.9953 39.2653 47.834 39.331 47.6835C39.3967 47.533 39.493 47.3962 39.6144 47.2811C39.7359 47.1659 39.88 47.0745 40.0387 47.0122C40.1974 46.9498 40.3675 46.9177 40.5392 46.9177C40.711 46.9177 40.8811 46.9498 41.0398 47.0122C41.1984 47.0745 41.3426 47.1659 41.4641 47.2811C41.5855 47.3962 41.6818 47.533 41.7475 47.6835C41.8132 47.834 41.847 47.9953 41.847 48.1581V54.3587C41.847 54.5216 41.8131 54.6828 41.7474 54.8333C41.6817 54.9837 41.5854 55.1205 41.4639 55.2356C41.3425 55.3508 41.1983 55.4421 41.0397 55.5044C40.881 55.5668 40.711 55.5988 40.5392 55.5988ZM47.0778 18.3954C46.731 18.3954 46.3984 18.2647 46.1531 18.0321C45.9079 17.7996 45.7701 17.4842 45.7701 17.1553V8.0404C45.7701 7.87752 45.8039 7.71623 45.8696 7.56574C45.9353 7.41525 46.0316 7.2785 46.153 7.16332C46.2745 7.04813 46.4186 6.95675 46.5773 6.89441C46.736 6.83207 46.9061 6.79999 47.0778 6.79999C47.2496 6.79999 47.4197 6.83207 47.5783 6.89441C47.737 6.95675 47.8812 7.04813 48.0026 7.16332C48.1241 7.2785 48.2204 7.41525 48.2861 7.56574C48.3518 7.71623 48.3856 7.87752 48.3855 8.0404V17.1553C48.3855 17.4842 48.2478 17.7996 48.0025 18.0321C47.7573 18.2647 47.4247 18.3954 47.0778 18.3954Z" fill="#CA5E92"/>
<path d="M47.5929 49.2589H20.9409C20.2445 49.2589 19.5766 48.9928 19.0842 48.5191C18.5917 48.0453 18.3151 47.4028 18.3151 46.7328C18.3151 46.0629 18.5917 45.4204 19.0842 44.9466C19.5766 44.4729 20.2445 44.2067 20.9409 44.2067H47.5929C48.2893 44.2067 48.9572 44.4729 49.4497 44.9466C49.9421 45.4204 50.2187 46.0629 50.2187 46.7328C50.2187 47.4028 49.9421 48.0453 49.4497 48.5191C48.9572 48.9928 48.2893 49.2589 47.5929 49.2589ZM11.2884 17.7458C10.8274 17.7459 10.3744 17.6291 9.97523 17.4073C9.57601 17.1854 9.24459 16.8663 9.01433 16.482C8.78407 16.0977 8.66309 15.6619 8.66358 15.2184C8.66406 14.7748 8.78599 14.3392 9.01709 13.9554C10.308 11.8248 11.8828 9.86567 13.7015 8.12773C19.309 2.73577 26.1833 0 34.1356 0C39.4516 0 44.3212 1.24537 48.6078 3.70326C50.6796 4.83495 52.7014 6.33293 54.5697 8.12899C56.3844 9.86653 57.9717 11.8109 59.2962 13.9188C59.6481 14.4927 59.7502 15.1771 59.58 15.8231C59.4098 16.469 58.9813 17.0241 58.3877 17.3674C57.794 17.7108 57.0834 17.8146 56.4106 17.6562C55.7378 17.4978 55.1573 17.0902 54.7955 16.522C53.6917 14.767 52.3689 13.1484 50.8568 11.7022C49.322 10.2269 47.6769 9.00428 45.9675 8.07089C42.4568 6.05885 38.4918 5.0522 34.1356 5.0522C27.5356 5.0522 22.0661 7.22717 17.4144 11.7009C15.92 13.1265 14.6258 14.7341 13.565 16.4828C13.0779 17.2924 12.1956 17.7458 11.2884 17.7458Z" fill="#CA5E92"/>
</svg>
