<svg width="1211" height="1379" viewBox="0 0 1211 1379" fill="none" xmlns="http://www.w3.org/2000/svg">
<path fill-rule="evenodd" clip-rule="evenodd" d="M591.717 0.0451733L588.181 0.0913159C519.872 0.959968 447.817 29.2258 395.459 72.7124C393.649 74.2783 391.836 75.8403 390.021 77.3999C383.454 82.6597 377.163 88.0083 371.196 93.9473L368.584 96.5874C361.599 103.612 354.804 110.716 348.501 118.361L346.021 121.4C328.751 141.742 314.131 163.99 302.568 188.041L302.545 188.089C301.325 190.659 300.106 193.228 298.851 195.781C286.987 219.9 278.941 246.421 273.72 272.739L273.021 276.4C271.032 286.741 270.005 296.85 269.021 307.4V357.4H0.0210257C0.0210257 358.643 0.0156546 359.87 0.0102835 361.086C-0.0146188 366.849 -0.0387887 372.37 0.51126 378.136L0.732696 380.242C0.894805 381.898 1.05765 383.554 1.22342 385.21C1.3074 386.048 1.39188 386.886 1.47757 387.724C1.59744 388.898 1.71658 390.073 1.8345 391.248L2.03006 393.203C2.42654 397.218 2.82474 401.232 3.22879 405.246C3.89603 411.856 4.55862 418.466 5.21512 425.077C5.92606 432.241 6.63675 439.405 7.35086 446.569C9.22879 465.391 11.0877 484.215 12.9261 503.042L13.1226 505.056C13.7871 511.861 14.4514 518.667 15.115 525.472C16.0044 534.59 16.8948 543.709 17.7859 552.827L17.9949 554.965L18.8328 563.538L21.1465 587.215L21.3565 589.363L24.428 620.803L28.9964 667.559L29.396 671.65C34.0948 719.734 38.8052 767.817 43.521 815.9C48.0352 861.927 52.5454 907.955 57.0435 953.984L58.2498 966.326C60.7632 992.042 63.2759 1017.76 65.7847 1043.48C67.168 1057.66 68.5518 1071.84 69.9363 1086.02L70.531 1092.11C74.0052 1127.7 77.4986 1163.28 81.0149 1198.87L81.2906 1201.66C83.0923 1219.89 84.8946 1238.13 86.7007 1256.36L88.729 1276.85L89.2588 1282.21L89.9129 1288.81L90.49 1294.63L91.2102 1301.9L91.418 1304.01C92.1638 1311.54 92.9043 1319.08 93.5984 1326.62L93.7893 1328.7L94.2122 1333.29L94.542 1336.89C94.8443 1340.28 95.0603 1342.7 95.2942 1345.12C95.8797 1351.18 96.5772 1357.22 99.021 1378.4H1110.02C1110.92 1374.79 1111.91 1371.18 1112.43 1367.49L1112.67 1364.69L1112.97 1361.32C1113.26 1357.95 1113.55 1354.58 1113.86 1351.2L1114.07 1348.87C1115.08 1337.66 1116.17 1326.45 1117.27 1315.25L1118 1307.8L1119.94 1287.9L1121.41 1272.97L1121.62 1270.78L1121.84 1268.57C1126.63 1219.58 1131.43 1170.6 1136.24 1121.61C1140.63 1076.85 1145.01 1032.08 1149.38 987.314L1149.58 985.275L1150.38 977.119L1152.57 954.657L1152.77 952.611C1154.14 938.642 1155.51 924.673 1156.87 910.705L1159.27 886.247L1159.49 884.001L1162.8 850.164L1166.34 814.044L1166.56 811.798C1168.73 789.61 1170.9 767.423 1173.07 745.234L1173.27 743.189L1175.46 720.717L1175.66 718.678L1176.46 710.525C1180.52 668.966 1184.59 627.408 1188.66 585.851L1190.22 570.007L1192 551.795L1193.88 532.669L1194.34 527.919C1196.25 508.456 1198.16 488.993 1200.08 469.531C1201.24 457.797 1202.39 446.063 1203.55 434.328C1204.28 426.872 1205.01 419.417 1205.75 411.962C1206.25 406.93 1206.75 401.897 1207.24 396.865L1207.92 389.904L1207.95 389.587C1208.26 386.493 1208.57 383.399 1208.87 380.304L1209.16 377.398C1209.84 370.673 1210.02 364.202 1210.02 357.4H941.021C941.021 273.065 923.918 193.311 868.709 126.837C867.142 125.028 865.581 123.215 864.021 121.4C858.761 114.833 853.413 108.542 847.474 102.575L844.834 99.9624C837.809 92.978 830.705 86.1831 823.06 79.8804L820.021 77.3999C779.901 43.3394 729.143 17.1733 677.287 7.02979L674.021 6.39991C646.53 0.811531 619.75 -0.251946 591.717 0.0451733ZM101.664 468.713C101.228 463.637 100.825 458.559 100.021 448.4H269.021L269.334 530.337C269.356 538.16 269.378 545.983 269.406 553.806C269.421 558.079 269.439 562.353 269.459 566.625C269.482 570.768 269.506 574.911 269.515 579.053C269.521 583.459 269.53 587.866 269.558 592.272C269.569 593.925 269.58 595.579 269.589 597.231C269.584 601.474 269.612 605.705 269.734 609.945C270.604 620.426 276.117 630.093 283.771 637.212C295.541 646.665 307.148 649.297 322.021 648.4L325.021 647.4C328.763 646.221 332.418 644.957 336.021 643.4C349.636 635.07 354.64 624.735 359.021 609.4L360.021 448.4H850.021L851.021 609.4C853.209 620.338 857.243 629.918 865.459 637.712L868.021 639.4C875.153 644.54 882.79 647.94 891.623 648.716C904.263 648.919 916.919 646.069 926.404 637.107C936.99 625.932 940.778 614.306 940.694 599.093C940.685 597.508 940.685 595.922 940.693 594.337C940.726 589.995 940.743 585.654 940.735 581.312C940.729 577.917 940.731 574.524 940.747 571.13C940.772 566.426 940.772 566.253 940.809 556.938L940.813 555.832C940.852 528.974 940.871 515.545 940.897 502.117C940.923 488.688 940.956 475.258 941.021 448.4H1109.02L1109.02 449.482C1109.02 455.226 1109.03 460.612 1108.49 466.302L1108.25 468.686C1107.98 471.464 1107.71 474.242 1107.44 477.02C1107.24 479.065 1107.04 481.111 1106.84 483.156C1106.29 488.834 1105.74 494.512 1105.18 500.19C1104.57 506.401 1103.96 512.613 1103.36 518.825C1101.88 534.045 1100.39 549.265 1098.9 564.484L1098.22 571.343L1096.69 587.021C1093.47 619.886 1090.25 652.75 1087.02 685.614C1083.69 719.548 1080.37 753.483 1077.05 787.419L1073.67 822.095L1073.27 826.189C1071.11 848.31 1068.94 870.432 1066.78 892.552L1066.56 894.798L1062.36 937.689L1059.71 964.752L1059.49 966.998C1057.55 986.807 1055.61 1006.62 1053.67 1026.43C1045.18 1113.42 1036.61 1200.41 1028.02 1287.4H182.021L181.921 1286.6C181.472 1283.01 181.024 1279.43 180.647 1275.84L180.288 1272.16C180.073 1269.96 179.857 1267.76 179.644 1265.56L179.17 1260.69C178.82 1257.12 178.471 1253.54 178.123 1249.97C177.543 1244 176.961 1238.04 176.379 1232.07L176.279 1231.05C175.561 1223.69 174.842 1216.33 174.125 1208.97C171.655 1183.65 169.181 1158.32 166.705 1132.99L165.282 1118.42C160.862 1073.2 156.432 1027.98 151.997 982.753C147.324 935.108 142.655 887.463 137.999 839.816L136.793 827.474C134.279 801.757 131.766 776.041 129.257 750.323C128.007 737.502 126.756 724.681 125.504 711.859L124.511 701.691C121.122 666.961 117.712 632.233 114.272 597.507L113.163 586.311L111.785 572.394L111.511 569.619C110.431 558.716 109.35 547.813 108.266 536.91C107.583 530.038 106.9 523.166 106.22 516.294C105.748 511.528 105.276 506.763 104.8 501.998C104.506 499.051 104.213 496.105 103.922 493.159L103.511 488.999C102.57 478.858 102.1 473.787 101.664 468.713ZM646.469 94.772L644.021 94.3999C610.441 89.022 576.351 90.1362 543.393 98.7647L541.021 99.3999C525.102 103.612 509.228 109.624 494.568 117.107C434.674 148.93 390.449 200.907 369.864 265.69L369.021 268.4C365.982 278.141 363.969 284.593 362.636 291.182C360.021 304.107 360.021 317.56 360.021 357.4H850.021C850.021 309.616 845.747 266.68 823.06 224.324L822.021 222.4C813.345 206.17 803.491 191.374 791.626 177.29L790.021 175.4C785.988 170.623 781.831 166.107 777.276 161.821L775.271 159.962C769.887 154.951 764.459 150.065 758.693 145.494L756.021 143.4C732.949 124.489 705.813 111.167 677.464 102.168L675.021 101.4C665.637 98.375 656.206 96.2588 646.469 94.772Z" fill="currentColor"/>
</svg>
