<svg width="1430" height="1530" viewBox="0 0 1430 1530" fill="none" xmlns="http://www.w3.org/2000/svg">
<path fill-rule="evenodd" clip-rule="evenodd" d="M0.312714 307.218L1082.06 0.103027L1082.33 1.06501L0.585826 308.18L0.312714 307.218ZM3.04382 316.837L1084.79 9.72266L1085.07 10.6846L3.31694 317.799L3.04382 316.837ZM5.77496 326.457L1087.52 19.3425L1087.8 20.3045L6.04808 327.419L5.77496 326.457ZM8.50607 336.077L1090.26 28.9624L1090.53 29.9244L8.77918 337.039L8.50607 336.077ZM11.2372 345.697L1092.99 38.5823L1093.26 39.5443L11.5103 346.659L11.2372 345.697ZM13.9683 355.317L1095.72 48.2021L1095.99 49.1641L14.2414 356.279L13.9683 355.317ZM16.6994 364.936L1098.45 57.8218L1098.72 58.7838L16.9725 365.898L16.6994 364.936ZM19.4306 374.556L1101.18 67.4417L1101.45 68.4036L19.7037 375.518L19.4306 374.556ZM22.1617 384.176L1103.91 77.0615L1104.18 78.0235L22.4348 385.138L22.1617 384.176ZM24.8928 393.796L1106.64 86.6814L1106.91 87.6434L25.1659 394.758L24.8928 393.796ZM27.6239 403.416L1109.37 96.3013L1109.65 97.2632L27.897 404.378L27.6239 403.416ZM30.355 413.036L1112.1 105.921L1112.38 106.883L30.6282 413.998L30.355 413.036ZM33.0862 422.655L1114.84 115.541L1115.11 116.503L33.3593 423.617L33.0862 422.655ZM35.8173 432.275L1117.57 125.161L1117.84 126.123L36.0904 433.237L35.8173 432.275ZM38.5484 441.895L1120.3 134.781L1120.57 135.742L38.8215 442.857L38.5484 441.895ZM41.2795 451.515L1123.03 144.4L1123.3 145.362L41.5527 452.477L41.2795 451.515ZM44.0107 461.135L1125.76 154.02L1126.03 154.982L44.2838 462.097L44.0107 461.135ZM46.7418 470.755L1128.49 163.64L1128.76 164.602L47.0149 471.717L46.7418 470.755ZM49.4729 480.374L1131.22 173.26L1131.5 174.222L49.746 481.336L49.4729 480.374ZM52.204 489.994L1133.95 182.88L1134.23 183.842L52.4771 490.956L52.204 489.994ZM54.9352 499.614L1136.68 192.499L1136.96 193.461L55.2083 500.576L54.9352 499.614ZM57.6663 509.234L1139.42 202.119L1139.69 203.081L57.9394 510.196L57.6663 509.234ZM60.3974 518.854L1142.15 211.739L1142.42 212.701L60.6705 519.816L60.3974 518.854ZM63.1285 528.473L1144.88 221.359L1145.15 222.321L63.4016 529.436L63.1285 528.473ZM65.8596 538.093L1147.61 230.979L1147.88 231.941L66.1327 539.055L65.8596 538.093ZM68.5908 547.713L1150.34 240.598L1150.61 241.56L68.8639 548.675L68.5908 547.713ZM71.3219 557.333L1153.07 250.218L1153.34 251.18L71.595 558.295L71.3219 557.333ZM74.053 566.953L1155.8 259.838L1156.08 260.8L74.3261 567.915L74.053 566.953ZM76.7841 576.573L1158.53 269.458L1158.81 270.42L77.0572 577.535L76.7841 576.573ZM79.5152 586.192L1161.26 279.078L1161.54 280.04L79.7883 587.155L79.5152 586.192ZM82.2464 595.812L1164 288.698L1164.27 289.659L82.5195 596.774L82.2464 595.812ZM84.9775 605.432L1166.73 298.317L1167 299.279L85.2506 606.394L84.9775 605.432ZM87.7086 615.052L1169.46 307.937L1169.73 308.899L87.9817 616.014L87.7086 615.052ZM90.4397 624.672L1172.19 317.557L1172.46 318.519L90.7128 625.634L90.4397 624.672ZM93.1708 634.291L1174.92 327.177L1175.19 328.139L93.444 635.253L93.1708 634.291ZM95.902 643.911L1177.65 336.797L1177.92 337.759L96.1751 644.873L95.902 643.911ZM98.6331 653.531L1180.38 346.417L1180.66 347.378L98.9062 654.493L98.6331 653.531ZM101.364 663.151L1183.11 356.036L1183.39 356.998L101.637 664.113L101.364 663.151ZM104.095 672.771L1185.84 365.656L1186.12 366.618L104.368 673.733L104.095 672.771ZM106.826 682.39L1188.58 375.276L1188.85 376.238L107.1 683.353L106.826 682.39ZM109.558 692.01L1191.31 384.896L1191.58 385.858L109.831 692.972L109.558 692.01ZM112.289 701.63L1194.04 394.516L1194.31 395.478L112.562 702.592L112.289 701.63ZM115.02 711.25L1196.77 404.136L1197.04 405.097L115.293 712.212L115.02 711.25ZM117.751 720.87L1199.5 413.755L1199.77 414.717L118.024 721.832L117.751 720.87ZM120.482 730.49L1202.23 423.375L1202.5 424.337L120.755 731.452L120.482 730.49ZM123.213 740.109L1204.96 432.995L1205.24 433.957L123.486 741.072L123.213 740.109ZM125.944 749.729L1207.69 442.615L1207.97 443.577L126.217 750.691L125.944 749.729ZM128.675 759.349L1210.42 452.235L1210.7 453.197L128.949 760.311L128.675 759.349ZM131.407 768.969L1213.16 461.854L1213.43 462.816L131.68 769.931L131.407 768.969ZM134.138 778.589L1215.89 471.474L1216.16 472.436L134.411 779.551L134.138 778.589ZM136.869 788.209L1218.62 481.094L1218.89 482.056L137.142 789.171L136.869 788.209ZM139.6 797.828L1221.35 490.714L1221.62 491.676L139.873 798.791L139.6 797.828ZM142.331 807.448L1224.08 500.334L1224.35 501.296L142.604 808.41L142.331 807.448ZM145.062 817.068L1226.81 509.954L1227.08 510.916L145.335 818.03L145.062 817.068ZM147.793 826.688L1229.54 519.573L1229.82 520.535L148.066 827.65L147.793 826.688ZM150.524 836.308L1232.27 529.193L1232.55 530.155L150.797 837.27L150.524 836.308ZM153.256 845.928L1235 538.813L1235.28 539.775L153.529 846.89L153.256 845.928ZM155.987 855.547L1237.74 548.433L1238.01 549.395L156.26 856.509L155.987 855.547ZM158.718 865.167L1240.47 558.053L1240.74 559.015L158.991 866.129L158.718 865.167ZM161.449 874.787L1243.2 567.672L1243.47 568.634L161.722 875.749L161.449 874.787ZM164.18 884.407L1245.93 577.292L1246.2 578.254L164.453 885.369L164.18 884.407ZM166.911 894.027L1248.66 586.912L1248.93 587.874L167.184 894.989L166.911 894.027ZM169.642 903.646L1251.39 596.532L1251.66 597.494L169.915 904.608L169.642 903.646ZM172.373 913.266L1254.12 606.152L1254.4 607.114L172.646 914.228L172.373 913.266ZM175.105 922.886L1256.85 615.771L1257.13 616.733L175.378 923.848L175.105 922.886ZM177.836 932.506L1259.58 625.391L1259.86 626.353L178.109 933.468L177.836 932.506ZM180.567 942.126L1262.32 635.011L1262.59 635.973L180.84 943.088L180.567 942.126ZM183.298 951.746L1265.05 644.631L1265.32 645.593L183.571 952.708L183.298 951.746ZM186.029 961.365L1267.78 654.251L1268.05 655.213L186.302 962.327L186.029 961.365ZM188.76 970.985L1270.51 663.871L1270.78 664.833L189.033 971.947L188.76 970.985ZM191.491 980.605L1273.24 673.49L1273.51 674.452L191.764 981.567L191.491 980.605ZM194.222 990.225L1275.97 683.11L1276.24 684.072L194.495 991.187L194.222 990.225ZM196.953 999.845L1278.7 692.73L1278.98 693.692L197.227 1000.81L196.953 999.845ZM199.685 1009.46L1281.43 702.35L1281.71 703.312L199.958 1010.43L199.685 1009.46ZM202.416 1019.08L1284.16 711.97L1284.44 712.932L202.689 1020.05L202.416 1019.08ZM205.147 1028.7L1286.9 721.59L1287.17 722.552L205.42 1029.67L205.147 1028.7ZM207.878 1038.32L1289.63 731.209L1289.9 732.171L208.151 1039.29L207.878 1038.32ZM210.609 1047.94L1292.36 740.829L1292.63 741.791L210.882 1048.91L210.609 1047.94ZM213.34 1057.56L1295.09 750.449L1295.36 751.411L213.613 1058.53L213.34 1057.56ZM216.071 1067.18L1297.82 760.069L1298.09 761.031L216.344 1068.15L216.071 1067.18ZM218.802 1076.8L1300.55 769.689L1300.82 770.651L219.076 1077.77L218.802 1076.8ZM221.534 1086.42L1303.28 779.308L1303.56 780.27L221.807 1087.39L221.534 1086.42ZM224.265 1096.04L1306.01 788.928L1306.29 789.89L224.538 1097L224.265 1096.04ZM226.996 1105.66L1308.74 798.548L1309.02 799.51L227.269 1106.62L226.996 1105.66ZM229.727 1115.28L1311.48 808.168L1311.75 809.13L230 1116.24L229.727 1115.28ZM232.458 1124.9L1314.21 817.788L1314.48 818.75L232.731 1125.86L232.458 1124.9ZM235.189 1134.52L1316.94 827.408L1317.21 828.37L235.462 1135.48L235.189 1134.52ZM237.92 1144.14L1319.67 837.027L1319.94 837.989L238.193 1145.1L237.92 1144.14ZM240.651 1153.76L1322.4 846.647L1322.67 847.609L240.925 1154.72L240.651 1153.76ZM243.383 1163.38L1325.13 856.267L1325.4 857.229L243.656 1164.34L243.383 1163.38ZM246.114 1173L1327.86 865.887L1328.14 866.849L246.387 1173.96L246.114 1173ZM248.845 1182.62L1330.59 875.507L1330.87 876.469L249.118 1183.58L248.845 1182.62ZM251.576 1192.24L1333.32 885.127L1333.6 886.089L251.849 1193.2L251.576 1192.24ZM254.307 1201.86L1336.06 894.746L1336.33 895.708L254.58 1202.82L254.307 1201.86ZM257.038 1211.48L1338.79 904.366L1339.06 905.328L257.311 1212.44L257.038 1211.48ZM259.769 1221.1L1341.52 913.986L1341.79 914.948L260.042 1222.06L259.769 1221.1ZM262.5 1230.72L1344.25 923.606L1344.52 924.568L262.774 1231.68L262.5 1230.72ZM265.232 1240.34L1346.98 933.226L1347.25 934.188L265.505 1241.3L265.232 1240.34ZM267.963 1249.96L1349.71 942.845L1349.98 943.807L268.236 1250.92L267.963 1249.96ZM270.694 1259.58L1352.44 952.465L1352.72 953.427L270.967 1260.54L270.694 1259.58ZM273.425 1269.2L1355.17 962.085L1355.45 963.047L273.698 1270.16L273.425 1269.2ZM276.156 1278.82L1357.9 971.705L1358.18 972.667L276.429 1279.78L276.156 1278.82ZM278.887 1288.44L1360.64 981.325L1360.91 982.287L279.16 1289.4L278.887 1288.44ZM281.618 1298.06L1363.37 990.945L1363.64 991.907L281.891 1299.02L281.618 1298.06ZM284.349 1307.68L1366.1 1000.56L1366.37 1001.53L284.623 1308.64L284.349 1307.68ZM287.08 1317.3L1368.83 1010.18L1369.1 1011.15L287.354 1318.26L287.08 1317.3ZM289.812 1326.92L1371.56 1019.8L1371.83 1020.77L290.085 1327.88L289.812 1326.92ZM292.543 1336.54L1374.29 1029.42L1374.56 1030.39L292.816 1337.5L292.543 1336.54ZM295.274 1346.16L1377.02 1039.04L1377.3 1040.01L295.547 1347.12L295.274 1346.16ZM298.005 1355.78L1379.75 1048.66L1380.03 1049.63L298.278 1356.74L298.005 1355.78ZM300.736 1365.4L1382.49 1058.28L1382.76 1059.25L301.009 1366.36L300.736 1365.4ZM303.467 1375.02L1385.22 1067.9L1385.49 1068.87L303.74 1375.98L303.467 1375.02ZM306.198 1384.64L1387.95 1077.52L1388.22 1078.48L306.471 1385.6L306.198 1384.64ZM308.929 1394.26L1390.68 1087.14L1390.95 1088.1L309.203 1395.22L308.929 1394.26ZM311.661 1403.88L1393.41 1096.76L1393.68 1097.72L311.934 1404.84L311.661 1403.88ZM314.392 1413.5L1396.14 1106.38L1396.41 1107.34L314.665 1414.46L314.392 1413.5ZM317.123 1423.12L1398.87 1116L1399.14 1116.96L317.396 1424.08L317.123 1423.12ZM319.854 1432.74L1401.6 1125.62L1401.88 1126.58L320.127 1433.7L319.854 1432.74ZM322.585 1442.36L1404.33 1135.24L1404.61 1136.2L322.858 1443.32L322.585 1442.36ZM325.316 1451.98L1407.07 1144.86L1407.34 1145.82L325.589 1452.94L325.316 1451.98ZM328.047 1461.6L1409.8 1154.48L1410.07 1155.44L328.32 1462.56L328.047 1461.6ZM330.778 1471.22L1412.53 1164.1L1412.8 1165.06L331.052 1472.18L330.778 1471.22ZM333.51 1480.84L1415.26 1173.72L1415.53 1174.68L333.783 1481.8L333.51 1480.84ZM336.241 1490.46L1417.99 1183.34L1418.26 1184.3L336.514 1491.42L336.241 1490.46ZM338.972 1500.08L1420.72 1192.96L1420.99 1193.92L339.245 1501.04L338.972 1500.08ZM341.703 1509.7L1423.45 1202.58L1423.73 1203.54L341.976 1510.66L341.703 1509.7ZM344.434 1519.32L1426.18 1212.2L1426.46 1213.16L344.707 1520.28L344.434 1519.32ZM347.165 1528.93L1428.91 1221.82L1429.19 1222.78L347.438 1529.9L347.165 1528.93Z" fill="black"/>
</svg>
