<?xml version="1.0" encoding="utf-8"?>
<!-- Generator: Adobe Illustrator 27.2.0, SVG Export Plug-In . SVG Version: 6.00 Build 0)  -->
<svg version="1.1" xmlns="http://www.w3.org/2000/svg" xmlns:xlink="http://www.w3.org/1999/xlink" x="0px" y="0px"
	 viewBox="0 0 1372 247.5" style="enable-background:new 0 0 1372 247.5;" xml:space="preserve">
<style type="text/css">
	.st0{display:none;}
	.st1{display:inline;}
	.st2{fill:#F4F4F4;stroke:#FF4DC4;stroke-width:0.5;stroke-miterlimit:10;}
	.st3{font-family:'FREEFATFONT-Regular';}
	.st4{font-size:264.3132px;}
	.st5{letter-spacing:26;}
	.st6{fill:#FF4DC4}
</style>
<g id="Calque_1" class="st0">
	<g class="st1">
		<text transform="matrix(1 0 0 1 -3.73 247.3906)" class="st2 st3 st4 st5">ttt corp.</text>
	</g>
	<g class="st1">
		<text transform="matrix(1 0 0 1 -3.73 221.6719)" class="st2 st3 st4 st5">TTT CORP.</text>
	</g>
	<g class="st1">
		<text transform="matrix(1 0 0 1 -3.73 195.9531)" class="st2 st3 st4 st5">ttt corp.</text>
	</g>
	<g class="st1">
		<text transform="matrix(1 0 0 1 -3.73 170.2305)" class="st6 st3 st4 st5">TTT CORP.</text>
	</g>
</g>
<g id="Calque_1_-_copie_2">
	<g>
		<g>
			<!-- <path class="st2" d="M127.77,80.87v59.21c0,1.59-1.06,2.64-2.64,2.64h-21.41v102.02c0,1.59-1.06,2.64-2.38,2.64H27.06
				c-1.59,0-2.64-1.06-2.64-2.64V142.72H3.01c-1.59,0-2.64-1.06-2.64-2.64V80.87c0-1.59,1.06-2.64,2.64-2.64h122.11
				C126.71,78.23,127.77,79.29,127.77,80.87z"/>
			<path class="st2" d="M285.82,80.87v59.21c0,1.59-1.06,2.64-2.64,2.64h-21.41v102.02c0,1.59-1.06,2.64-2.38,2.64h-74.27
				c-1.59,0-2.64-1.06-2.64-2.64V142.72h-21.41c-1.59,0-2.64-1.06-2.64-2.64V80.87c0-1.59,1.06-2.64,2.64-2.64h122.11
				C284.76,78.23,285.82,79.29,285.82,80.87z"/>
			<path class="st2" d="M443.88,80.87v59.21c0,1.59-1.06,2.64-2.64,2.64h-21.41v102.02c0,1.59-1.06,2.64-2.38,2.64h-74.27
				c-1.59,0-2.64-1.06-2.64-2.64V142.72h-21.41c-1.59,0-2.64-1.06-2.64-2.64V80.87c0-1.59,1.06-2.64,2.64-2.64h122.11
				C442.82,78.23,443.88,79.29,443.88,80.87z"/>
			<path class="st2" d="M712.41,165.19v45.2c0,23.79-13.21,37-37,37H586.6c-23.79,0-37-13.22-37-37v-95.15c0-23.79,13.22-37,37-37
				h88.81c23.79,0,37,13.22,37,37v40.97c0,1.59-1.06,2.64-2.64,2.64H635.5c-1.59,0-2.64-1.06-2.64-2.64v-31.45h-3.7v76.12h3.7
				v-35.68c0-1.59,1.06-2.64,2.64-2.64h74.27C711.36,162.55,712.41,163.6,712.41,165.19z"/>
			<path class="st2" d="M743.07,115.23c0-23.79,13.22-37,37-37h88.81c23.79,0,37,13.22,37,37v95.15c0,23.79-13.21,37-37,37h-88.81
				c-23.79,0-37-13.22-37-37V115.23z M822.63,200.87h3.7v-76.12h-3.7V200.87z"/>
			<path class="st2" d="M1081.65,165.19l17.71,17.18v62.38c0,1.59-1.06,2.64-2.64,2.64h-74.27c-1.59,0-2.64-1.06-2.64-2.64V194
				l-3.7-4.23v54.98c0,1.59-1.06,2.64-2.64,2.64h-74.27c-1.59,0-2.64-1.06-2.64-2.64V80.87c0-1.59,1.06-2.64,2.64-2.64h123.17
				c23.79,0,37,13.22,37,37v20.35C1099.36,150.65,1092.49,159.64,1081.65,165.19z M1019.8,124.75h-3.7v26.96h3.7V124.75z"/>
			<path class="st2" d="M1130.02,244.75V80.87c0-1.59,1.06-2.64,2.64-2.64h122.64c24.05,0,37,13.22,37,37v59.21
				c0,23.79-12.95,37-37,37h-45.99v33.3c0,1.59-1.06,2.64-2.64,2.64h-74.01C1131.08,247.39,1130.02,246.33,1130.02,244.75z
				 M1212.75,164.92v-40.18h-3.96v40.18H1212.75z"/>
			<path class="st2" d="M1321.64,194.53h47.58c1.59,0,2.64,1.06,2.64,2.64v47.58c0,1.59-1.06,2.64-2.64,2.64h-47.58
				c-1.59,0-2.64-1.06-2.64-2.64v-47.58C1319,195.58,1320.06,194.53,1321.64,194.53z"/> -->
		</g>
	</g>
	<g>
		<g>
			<!-- <path class="st2" d="M127.77,55.15v59.21c0,1.59-1.06,2.64-2.64,2.64h-21.41v102.02c0,1.59-1.06,2.64-2.38,2.64H27.06
				c-1.59,0-2.64-1.06-2.64-2.64V117H3.01c-1.59,0-2.64-1.06-2.64-2.64V55.15c0-1.59,1.06-2.64,2.64-2.64h122.11
				C126.71,52.51,127.77,53.57,127.77,55.15z"/>
			<path class="st2" d="M285.82,55.15v59.21c0,1.59-1.06,2.64-2.64,2.64h-21.41v102.02c0,1.59-1.06,2.64-2.38,2.64h-74.27
				c-1.59,0-2.64-1.06-2.64-2.64V117h-21.41c-1.59,0-2.64-1.06-2.64-2.64V55.15c0-1.59,1.06-2.64,2.64-2.64h122.11
				C284.76,52.51,285.82,53.57,285.82,55.15z"/>
			<path class="st2" d="M443.88,55.15v59.21c0,1.59-1.06,2.64-2.64,2.64h-21.41v102.02c0,1.59-1.06,2.64-2.38,2.64h-74.27
				c-1.59,0-2.64-1.06-2.64-2.64V117h-21.41c-1.59,0-2.64-1.06-2.64-2.64V55.15c0-1.59,1.06-2.64,2.64-2.64h122.11
				C442.82,52.51,443.88,53.57,443.88,55.15z"/>
			<path class="st2" d="M712.41,139.47v45.2c0,23.79-13.21,37-37,37H586.6c-23.79,0-37-13.22-37-37V89.52c0-23.79,13.22-37,37-37
				h88.81c23.79,0,37,13.22,37,37v40.97c0,1.59-1.06,2.64-2.64,2.64H635.5c-1.59,0-2.64-1.06-2.64-2.64V99.03h-3.7v76.12h3.7v-35.68
				c0-1.59,1.06-2.64,2.64-2.64h74.27C711.36,136.83,712.41,137.88,712.41,139.47z"/>
			<path class="st2" d="M743.07,89.52c0-23.79,13.22-37,37-37h88.81c23.79,0,37,13.22,37,37v95.15c0,23.79-13.21,37-37,37h-88.81
				c-23.79,0-37-13.22-37-37V89.52z M822.63,175.15h3.7V99.03h-3.7V175.15z"/>
			<path class="st2" d="M1081.65,139.47l17.71,17.18v62.38c0,1.59-1.06,2.64-2.64,2.64h-74.27c-1.59,0-2.64-1.06-2.64-2.64v-50.75
				l-3.7-4.23v54.98c0,1.59-1.06,2.64-2.64,2.64h-74.27c-1.59,0-2.64-1.06-2.64-2.64V55.15c0-1.59,1.06-2.64,2.64-2.64h123.17
				c23.79,0,37,13.22,37,37v20.35C1099.36,124.93,1092.49,133.92,1081.65,139.47z M1019.8,99.03h-3.7v26.96h3.7V99.03z"/>
			<path class="st2" d="M1130.02,219.03V55.15c0-1.59,1.06-2.64,2.64-2.64h122.64c24.05,0,37,13.22,37,37v59.21
				c0,23.79-12.95,37-37,37h-45.99v33.3c0,1.59-1.06,2.64-2.64,2.64h-74.01C1131.08,221.67,1130.02,220.61,1130.02,219.03z
				 M1212.75,139.21V99.03h-3.96v40.18H1212.75z"/>
			<path class="st2" d="M1321.64,168.81h47.58c1.59,0,2.64,1.06,2.64,2.64v47.58c0,1.59-1.06,2.64-2.64,2.64h-47.58
				c-1.59,0-2.64-1.06-2.64-2.64v-47.58C1319,169.87,1320.06,168.81,1321.64,168.81z"/> -->
		</g>
	</g>
	<g>
		<g>
			<!-- <path class="st2" d="M127.77,29.44v59.21c0,1.59-1.06,2.64-2.64,2.64h-21.41v102.02c0,1.59-1.06,2.64-2.38,2.64H27.06
				c-1.59,0-2.64-1.06-2.64-2.64V91.29H3.01c-1.59,0-2.64-1.06-2.64-2.64V29.44c0-1.59,1.06-2.64,2.64-2.64h122.11
				C126.71,26.79,127.77,27.85,127.77,29.44z"/>
			<path class="st2" d="M285.82,29.44v59.21c0,1.59-1.06,2.64-2.64,2.64h-21.41v102.02c0,1.59-1.06,2.64-2.38,2.64h-74.27
				c-1.59,0-2.64-1.06-2.64-2.64V91.29h-21.41c-1.59,0-2.64-1.06-2.64-2.64V29.44c0-1.59,1.06-2.64,2.64-2.64h122.11
				C284.76,26.79,285.82,27.85,285.82,29.44z"/>
			<path class="st2" d="M443.88,29.44v59.21c0,1.59-1.06,2.64-2.64,2.64h-21.41v102.02c0,1.59-1.06,2.64-2.38,2.64h-74.27
				c-1.59,0-2.64-1.06-2.64-2.64V91.29h-21.41c-1.59,0-2.64-1.06-2.64-2.64V29.44c0-1.59,1.06-2.64,2.64-2.64h122.11
				C442.82,26.79,443.88,27.85,443.88,29.44z"/>
			<path class="st2" d="M712.41,113.75v45.2c0,23.79-13.21,37-37,37H586.6c-23.79,0-37-13.22-37-37V63.8c0-23.79,13.22-37,37-37
				h88.81c23.79,0,37,13.22,37,37v40.97c0,1.59-1.06,2.64-2.64,2.64H635.5c-1.59,0-2.64-1.06-2.64-2.64V73.31h-3.7v76.12h3.7v-35.68
				c0-1.59,1.06-2.64,2.64-2.64h74.27C711.36,111.11,712.41,112.17,712.41,113.75z"/>
			<path class="st2" d="M743.07,63.8c0-23.79,13.22-37,37-37h88.81c23.79,0,37,13.22,37,37v95.15c0,23.79-13.21,37-37,37h-88.81
				c-23.79,0-37-13.22-37-37V63.8z M822.63,149.43h3.7V73.31h-3.7V149.43z"/>
			<path class="st2" d="M1081.65,113.75l17.71,17.18v62.38c0,1.59-1.06,2.64-2.64,2.64h-74.27c-1.59,0-2.64-1.06-2.64-2.64v-50.75
				l-3.7-4.23v54.98c0,1.59-1.06,2.64-2.64,2.64h-74.27c-1.59,0-2.64-1.06-2.64-2.64V29.44c0-1.59,1.06-2.64,2.64-2.64h123.17
				c23.79,0,37,13.22,37,37v20.35C1099.36,99.21,1092.49,108.2,1081.65,113.75z M1019.8,73.31h-3.7v26.96h3.7V73.31z"/>
			<path class="st2" d="M1130.02,193.31V29.44c0-1.59,1.06-2.64,2.64-2.64h122.64c24.05,0,37,13.22,37,37V123
				c0,23.79-12.95,37-37,37h-45.99v33.3c0,1.59-1.06,2.64-2.64,2.64h-74.01C1131.08,195.95,1130.02,194.9,1130.02,193.31z
				 M1212.75,113.49V73.31h-3.96v40.18H1212.75z"/>
			<path class="st2" d="M1321.64,143.09h47.58c1.59,0,2.64,1.06,2.64,2.64v47.58c0,1.59-1.06,2.64-2.64,2.64h-47.58
				c-1.59,0-2.64-1.06-2.64-2.64v-47.58C1319,144.15,1320.06,143.09,1321.64,143.09z"/> -->
		</g>
	</g>
	<g>
		<g>
			<path class="st6" d="M127.77,3.71v59.21c0,1.59-1.06,2.64-2.64,2.64h-21.41v102.02c0,1.59-1.06,2.64-2.38,2.64H27.06
				c-1.59,0-2.64-1.06-2.64-2.64V65.56H3.01c-1.59,0-2.64-1.06-2.64-2.64V3.71c0-1.59,1.06-2.64,2.64-2.64h122.11
				C126.71,1.07,127.77,2.13,127.77,3.71z"/>
			<path class="st6" d="M285.82,3.71v59.21c0,1.59-1.06,2.64-2.64,2.64h-21.41v102.02c0,1.59-1.06,2.64-2.38,2.64h-74.27
				c-1.59,0-2.64-1.06-2.64-2.64V65.56h-21.41c-1.59,0-2.64-1.06-2.64-2.64V3.71c0-1.59,1.06-2.64,2.64-2.64h122.11
				C284.76,1.07,285.82,2.13,285.82,3.71z"/>
			<path class="st6" d="M443.88,3.71v59.21c0,1.59-1.06,2.64-2.64,2.64h-21.41v102.02c0,1.59-1.06,2.64-2.38,2.64h-74.27
				c-1.59,0-2.64-1.06-2.64-2.64V65.56h-21.41c-1.59,0-2.64-1.06-2.64-2.64V3.71c0-1.59,1.06-2.64,2.64-2.64h122.11
				C442.82,1.07,443.88,2.13,443.88,3.71z"/>
			<path class="st6" d="M712.41,88.03v45.2c0,23.79-13.21,37-37,37H586.6c-23.79,0-37-13.22-37-37V38.07c0-23.79,13.22-37,37-37
				h88.81c23.79,0,37,13.22,37,37v40.97c0,1.59-1.06,2.64-2.64,2.64H635.5c-1.59,0-2.64-1.06-2.64-2.64V47.59h-3.7v76.12h3.7V88.03
				c0-1.59,1.06-2.64,2.64-2.64h74.27C711.36,85.39,712.41,86.44,712.41,88.03z"/>
			<path class="st6" d="M743.07,38.07c0-23.79,13.22-37,37-37h88.81c23.79,0,37,13.22,37,37v95.15c0,23.79-13.21,37-37,37h-88.81
				c-23.79,0-37-13.22-37-37V38.07z M822.63,123.71h3.7V47.59h-3.7V123.71z"/>
			<path class="st6" d="M1081.65,88.03l17.71,17.18v62.38c0,1.59-1.06,2.64-2.64,2.64h-74.27c-1.59,0-2.64-1.06-2.64-2.64v-50.75
				l-3.7-4.23v54.98c0,1.59-1.06,2.64-2.64,2.64h-74.27c-1.59,0-2.64-1.06-2.64-2.64V3.71c0-1.59,1.06-2.64,2.64-2.64h123.17
				c23.79,0,37,13.22,37,37v20.35C1099.36,73.49,1092.49,82.48,1081.65,88.03z M1019.8,47.59h-3.7v26.96h3.7V47.59z"/>
			<path class="st6" d="M1130.02,167.59V3.71c0-1.59,1.06-2.64,2.64-2.64h122.64c24.05,0,37,13.22,37,37v59.21
				c0,23.79-12.95,37-37,37h-45.99v33.3c0,1.59-1.06,2.64-2.64,2.64h-74.01C1131.08,170.23,1130.02,169.17,1130.02,167.59z
				 M1212.75,87.76V47.59h-3.96v40.18H1212.75z"/>
			<path class="st6" d="M1321.64,117.37h47.58c1.59,0,2.64,1.06,2.64,2.64v47.58c0,1.59-1.06,2.64-2.64,2.64h-47.58
				c-1.59,0-2.64-1.06-2.64-2.64v-47.58C1319,118.43,1320.06,117.37,1321.64,117.37z"/>
		</g>
	</g>
</g>
</svg>
