<svg width="430" height="513" viewBox="0 0 430 513" fill="none" xmlns="http://www.w3.org/2000/svg">
<path d="M2 2C142.58 2 283.16 2 428 2C428 62.06 428 122.12 428 184C388.73 184 349.46 184 309 184C309 291.91 309 399.82 309 511C246.63 511 184.26 511 120 511C120 403.09 120 295.18 120 184C81.06 184 42.12 184 2 184C2 123.94 2 63.88 2 2ZM4 4C4 63.4 4 120.8 4 182C42.94 182 81.88 182 122 182C122 289.58 122 398.16 122 509C183.38 509 243.76 509 307 509C307 401.42 307 292.84 307 182C345.94 182 385.88 182 426 182C426 122.6 426 65.2 426 4C286.74 4 147.48 4 4 4Z" fill="#fff" stroke="#fff" stroke-width="3"/>
<path d="M33 28C153.12 28 273.24 28 397 28C397 70.57 397 113.14 397 157C358.72 157 320.44 157 281 157C281 264.91 281 372.82 281 484C237.44 484 193.88 484 149 484C149 376.09 149 268.18 149 157C110.72 157 72.44 157 33 157C33 114.43 33 71.86 33 28ZM35 30C35 71.25 35 112.5 35 155C73.28 155 111.56 155 151 155C151 263.24 151 370.48 151 482C193.9 482 234.8 482 279 482C279 373.76 279 266.52 279 155C317.28 155 355.56 155 395 155C395 113.75 395 72.5 395 30C275.54 30 158.08 30 35 30Z" fill="#fff" stroke="#fff" stroke-width="3"/>
<path d="M61 55C163.3 55 265.6 55 371 55C371 80.41 371 105.82 371 132C332.39 132 293.78 132 254 132C254 239.58 254 347.16 254 458C228.92 458 203.84 458 178 458C178 350.42 178 242.84 178 132C139.39 132 100.78 132 61 132C61 106.59 61 81.18 61 55ZM63 57C63 81.42 63 104.84 63 130C101.61 130 140.22 130 180 130C180 237.58 180 345.16 180 456C204.42 456 226.84 456 252 456C252 348.42 252 240.84 252 130C290.28 130 329.56 130 369 130C369 105.58 369 82.16 369 57C267.69 57 167.38 57 63 57Z" fill="#fff" stroke="#fff" stroke-width="3"/>
</svg>
